<?xml version="1.0" standalone="no"?>
<!DOCTYPE svg PUBLIC "-//W3C//DTD SVG 20010904//EN"
 "http://www.w3.org/TR/2001/REC-SVG-20010904/DTD/svg10.dtd">
<svg version="1.0" xmlns="http://www.w3.org/2000/svg"
 width="1024.000000pt" height="1024.000000pt" viewBox="0 0 1024.000000 1024.000000"
 preserveAspectRatio="xMidYMid meet">

<g transform="translate(0.000000,1024.000000) scale(0.100000,-0.100000)"
fill="#000000" stroke="none">
<path d="M4910 8010 c-273 -59 -525 -239 -662 -473 -100 -172 -127 -273 -138
-522 -5 -110 -9 -201 -9 -202 -1 -2 -189 -3 -418 -3 -415 0 -417 0 -449 -22
-52 -36 -51 -30 -85 -403 -5 -60 -14 -148 -19 -195 -5 -47 -16 -161 -25 -255
-8 -93 -22 -235 -30 -315 -8 -80 -22 -217 -30 -305 -8 -88 -23 -252 -34 -365
-11 -113 -25 -254 -31 -315 -6 -60 -17 -175 -25 -255 -20 -191 -32 -321 -45
-455 -15 -159 -50 -525 -60 -630 -37 -367 -41 -436 -35 -505 25 -291 251 -529
540 -569 107 -15 3414 -15 3522 0 208 28 392 159 482 342 73 150 83 236 56
502 -9 83 -24 238 -35 345 -11 107 -34 337 -50 510 -37 389 -91 946 -131 1350
-47 480 -68 703 -84 870 -9 85 -20 200 -25 255 -37 379 -30 349 -83 389 l-34
26 -419 2 -419 3 -6 190 c-6 188 -12 227 -54 350 -78 227 -257 436 -479 560
-186 103 -468 142 -686 95z m320 -235 c172 -26 309 -94 430 -215 80 -80 132
-157 174 -263 41 -102 50 -161 50 -327 l1 -155 -765 0 -765 0 1 160 c0 180 14
252 70 370 105 223 316 385 560 429 103 19 130 19 244 1z m1588 -1220 c7 -3
12 -23 12 -54 0 -28 4 -83 10 -123 5 -40 16 -145 25 -233 8 -88 20 -203 25
-255 5 -52 17 -165 25 -250 23 -222 44 -430 55 -540 5 -52 17 -169 25 -260 8
-91 28 -302 45 -470 16 -168 36 -381 45 -475 8 -93 22 -233 30 -310 7 -77 18
-189 24 -250 6 -60 18 -182 27 -270 22 -215 17 -302 -24 -381 -40 -78 -132
-164 -209 -196 l-58 -23 -1760 0 -1760 0 -66 32 c-81 40 -152 109 -191 187
-45 88 -46 155 -9 531 17 176 38 392 46 480 36 389 66 711 80 840 14 138 25
251 45 455 11 115 39 403 70 720 11 113 25 255 31 315 5 61 14 146 19 190 5
44 14 136 20 205 6 69 13 130 14 135 3 10 3376 10 3404 0z"/>
<path d="M4280 6007 c-20 -7 -44 -27 -58 -47 l-23 -35 3 -430 c4 -406 5 -434
26 -510 31 -111 58 -177 113 -270 49 -84 168 -213 246 -266 72 -50 192 -106
288 -135 79 -23 108 -27 240 -28 129 -1 161 2 229 22 384 111 640 408 685 797
6 50 11 248 11 441 0 347 -4 400 -35 430 -51 51 -155 44 -192 -13 -16 -25 -18
-65 -23 -463 -5 -417 -7 -437 -28 -495 -36 -98 -70 -159 -128 -229 -139 -169
-341 -257 -559 -243 -171 11 -298 69 -425 197 -69 68 -94 102 -127 170 -71
147 -73 164 -73 621 0 382 -1 406 -20 436 -31 51 -90 71 -150 50z"/>
</g>
</svg>
