<?xml version="1.0" encoding="UTF-8"?>
<svg version="1.1" xmlns="http://www.w3.org/2000/svg">
<path d="M0 0 C103.29 0 206.58 0 313 0 C313 87.12 313 174.24 313 264 C209.71 264 106.42 264 0 264 C0 176.88 0 89.76 0 0 Z " fill="#FEFEFE" transform="translate(0,0)"/>
<path d="M0 0 C45.54 0 91.08 0 138 0 C137.23217691 10.74952321 136.20151884 19.03305454 133 29 C132.78714355 29.66322266 132.57428711 30.32644531 132.35498047 31.00976562 C124.2206245 55.69088061 108.11292035 75.24384667 84.92626953 87.03662109 C83.97276611 87.51349365 83.97276611 87.51349365 83 88 C81.31197266 88.84498047 81.31197266 88.84498047 79.58984375 89.70703125 C73.01745288 92.72318534 67.97955428 93.83075465 61.02246094 91.27294922 C59.01483321 90.37358422 57.07109642 89.4005551 55.125 88.375 C54.07965088 87.83540649 54.07965088 87.83540649 53.01318359 87.28491211 C47.33053891 84.29345732 42.03510649 81.00049557 37 77 C36.2059375 76.38125 35.411875 75.7625 34.59375 75.125 C14.21294846 58.09800124 3.7881944 32.7712013 0 7 C0 4.69 0 2.38 0 0 Z " fill="#1F3050" transform="translate(95,148)"/>
<path d="M0 0 C2.87697366 2.45595313 3.77475038 4.03142665 4.625 7.6875 C3.80681773 12.02386606 1.79657107 15.05775942 -0.58984375 18.73046875 C-2.13733149 21.02519641 -2.13733149 21.02519641 -3 24 C-1.69442139 23.97905273 -0.38884277 23.95810547 0.95629883 23.93652344 C5.84469441 23.8635967 10.73304283 23.81801009 15.62182617 23.78027344 C17.72933057 23.76027722 19.83678034 23.73307107 21.9440918 23.69824219 C38.30891584 23.43473093 50.56422463 24.07745948 62.90625 35.8125 C69.96935184 43.23474261 73.43607907 52.75038648 73.28125 63.0078125 C72.8005451 66.41280553 71.20267157 68.44013845 69 71 C65.06019706 73.9017115 62.24823347 74.37752855 57.39611816 74.38768005 C56.42107448 74.39575836 56.42107448 74.39575836 55.42633295 74.40399987 C53.25603257 74.41826639 51.08634326 74.41117941 48.91601562 74.40405273 C47.35690318 74.40975696 45.79779492 74.41672143 44.23869324 74.42485046 C40.00938939 74.4427899 35.78029292 74.44161221 31.55096245 74.43590808 C28.01951621 74.43281779 24.48810989 74.4389068 20.95666933 74.44494683 C12.62618978 74.45899261 4.29581278 74.45742993 -4.03466797 74.44604492 C-12.62862576 74.43455938 -21.22227164 74.44864649 -29.81618834 74.4754414 C-37.19637103 74.49759039 -44.57645576 74.50423772 -51.95666933 74.49836498 C-56.36386364 74.49499278 -60.77085793 74.49742803 -65.17802429 74.51461601 C-69.32154287 74.53007073 -73.46459879 74.52614631 -77.60809898 74.50731087 C-79.12825621 74.50362107 -80.64844761 74.50674489 -82.16857338 74.51719666 C-84.24495607 74.53038264 -86.31980158 74.51888336 -88.39611816 74.50120544 C-89.55753578 74.50099616 -90.7189534 74.50078688 -91.91556549 74.50057125 C-95.65260633 73.89408886 -97.2985983 72.5962241 -100 70 C-103.5830058 64.89693113 -102.49356582 57.90996993 -102 52 C-100.0731502 42.76663919 -93.9018578 35.6166146 -86.4375 30.109375 C-77.95219121 24.78018716 -70.67144356 23.69822414 -60.81640625 23.5859375 C-59.76090073 23.56657135 -58.7053952 23.5472052 -57.61790466 23.5272522 C-54.2661838 23.46775447 -50.91442803 23.42119035 -47.5625 23.375 C-45.28188655 23.3367928 -43.00128711 23.29773949 -40.72070312 23.2578125 C-35.1472603 23.16207758 -29.57373223 23.07694383 -24 23 C-23.61799438 21.89483032 -23.61799438 21.89483032 -23.22827148 20.76733398 C-22.71115601 19.30275757 -22.71115601 19.30275757 -22.18359375 17.80859375 C-21.84642334 16.84493896 -21.50925293 15.88128418 -21.16186523 14.88842773 C-17.26247947 5.19445147 -11.35564637 -3.64397607 0 0 Z " fill="#1F3151" transform="translate(179,55)"/>
</svg>