<?xml version="1.0" standalone="no"?>
<!DOCTYPE svg PUBLIC "-//W3C//DTD SVG 20010904//EN"
 "http://www.w3.org/TR/2001/REC-SVG-20010904/DTD/svg10.dtd">
<svg version="1.0" xmlns="http://www.w3.org/2000/svg"
 width="512.000000pt" height="512.000000pt" viewBox="0 0 512.000000 512.000000"
 preserveAspectRatio="xMidYMid meet">

<g transform="translate(0.000000,512.000000) scale(0.100000,-0.100000)"
fill="#000000" stroke="none">
<path d="M2370 5113 c-371 -35 -653 -114 -961 -269 -245 -122 -444 -268 -655
-478 -224 -225 -366 -423 -500 -701 -158 -326 -237 -650 -251 -1020 -15 -426
73 -832 263 -1214 133 -269 271 -459 488 -677 221 -220 412 -357 681 -489 188
-92 309 -137 500 -185 500 -126 1002 -102 1490 71 149 53 407 182 540 271 299
199 573 480 769 788 72 113 188 353 235 486 235 662 194 1372 -115 1993 -124
250 -263 447 -458 648 -214 222 -430 379 -711 518 -296 146 -572 225 -900 255
-102 9 -333 11 -415 3z m545 -342 c634 -107 1171 -457 1523 -995 170 -258 286
-563 339 -891 24 -153 24 -497 0 -650 -34 -206 -98 -421 -182 -610 -36 -80
-147 -276 -153 -270 -3 3 -16 47 -29 97 -121 468 -455 910 -872 1156 -53 31
-97 57 -99 58 -2 1 17 30 41 65 378 543 188 1310 -401 1617 -123 64 -226 99
-349 117 -489 74 -954 -169 -1177 -612 -178 -356 -146 -795 81 -1122 24 -35
43 -64 41 -65 -2 -1 -46 -27 -99 -58 -415 -245 -740 -671 -865 -1133 -14 -55
-28 -107 -31 -115 -10 -33 -155 241 -222 422 -47 125 -92 299 -118 453 -25
152 -25 495 0 650 105 647 447 1183 983 1541 306 205 675 333 1054 368 108 10
418 -4 535 -23z m-165 -634 c207 -57 368 -172 481 -345 88 -134 124 -258 124
-432 0 -226 -75 -408 -231 -564 -156 -156 -338 -231 -564 -231 -226 0 -408 75
-564 231 -156 156 -231 338 -231 564 0 175 36 297 125 434 118 181 302 305
520 352 80 17 262 12 340 -9z m-690 -1774 c332 -165 672 -165 1004 2 l130 65
73 -36 c231 -111 468 -320 618 -544 150 -224 237 -468 267 -746 l11 -105 -34
-36 c-63 -66 -224 -195 -334 -268 -269 -179 -574 -297 -910 -352 -154 -24
-497 -24 -650 0 -459 75 -871 274 -1199 579 l-79 73 11 107 c23 213 73 391
160 565 127 252 305 457 531 612 84 57 260 154 271 149 3 -2 61 -31 130 -65z"/>
</g>
</svg>
