<?xml version="1.0" encoding="iso-8859-1"?>
<!-- Generator: Adobe Illustrator 24.1.2, SVG Export Plug-In . SVG Version: 6.00 Build 0)  -->
<svg version="1.1" baseProfile="basic" id="Layer_1"
	 xmlns="http://www.w3.org/2000/svg" xmlns:xlink="http://www.w3.org/1999/xlink" x="0px" y="0px" viewBox="0 0 30 30"
	 xml:space="preserve">
<g>
	<path style="fill-rule:evenodd;clip-rule:evenodd;" d="M24,4H6C4.895,4,4,4.895,4,6v18c0,1.105,0.895,2,2,2h18c1.105,0,2-0.895,2-2
		V6C26,4.895,25.105,4,24,4z M17.043,21l-2.987-4.269L10.37,21H8.894l4.507-5.206L8.648,9h4.612l2.691,3.847L19.282,9h1.45
		l-4.128,4.781L21.655,21H17.043z"/>
	<polygon style="fill-rule:evenodd;clip-rule:evenodd;" points="10.878,10.184 17.633,19.811 19.421,19.811 12.666,10.184 	"/>
</g>
</svg>